<svg enable-background="new 0 0 800 800" viewBox="0 0 800 800" xmlns="http://www.w3.org/2000/svg"><g fill="#7f52ff"><path d="m217 450.9c-1.7 0-3.4-.1-5.1-.2-24.2-1.8-52.6-17.2-60.1-55-2.2-10.9-.7-21.9.7-32.5 3-22.9 3.6-33.5-14.6-43.7-9.2-5.1-12.4-16.7-7.3-25.9s16.7-12.4 25.9-7.3c18.1 10.1 29.4 24.1 33.6 41.6 3.5 14.3 1.7 28 .1 40.2-1 7.9-2 15.3-1.1 20.2 1.4 6.9 6.6 23 25.6 24.4 7.8.6 14.2-2 19.8-7.9 5.2-5.6 8.3-12.9 9-17.3 1.6-10.4 11.3-17.5 21.7-15.9s17.5 11.3 15.9 21.7c-3.7 24.6-26 57.6-64.1 57.6z"/><path d="m185.8 564.3c-4.9 0-9.7-1.9-13.4-5.6-7.4-7.4-7.4-19.4 0-26.9l22.6-22.6c3.6-3.6 8.4-5.6 13.4-5.6 5 0 9.9 2 13.4 5.6 17.4 17.4 49.9 19.7 72.8 14.5 21.1-4.8 59.2-21.1 78.1-75.6 3.4-9.9 14.2-15.2 24.2-11.7 9.9 3.4 15.2 14.2 11.7 24.2-9.7 28-24.6 51-44.3 68.6-17.4 15.5-38.5 26.4-61.2 31.6-33.2 7.6-68.3 2.4-93.1-12.8l-10.8 10.8c-3.6 3.7-8.5 5.5-13.4 5.5z"/><path d="m414.8 675.6h-33.1c-5.8 0-11.2-2.6-14.8-7.1s-5-10.4-3.7-16.1l46.4-204.2c2.3-10.2 12.5-16.6 22.7-14.3s16.6 12.5 14.3 22.7l-41.1 181h9.3c10.5 0 19 8.5 19 19s-8.5 19-19 19z"/><path d="m283.1 481.4 256.9-18c20-1.4 35.1-18.8 33.7-38.8l-14.2-203.1c-2.3-32.5-40.7-48.5-65.4-27.3l-87.9 75.8c-5 4.3-12.2 4.8-17.7 1.2l-97.4-62.7c-27.4-17.7-63.3 3.5-61 36.1l14.2 203.1c1.5 20 18.8 35.1 38.8 33.7z"/></g><path d="m527.5 444.7-234.2 16.3c-15.4 1.1-28.8-10.6-29.9-26l-7.2-103.7c-1.1-15.4 10.6-28.8 26-29.9l234.2-16.3c15.4-1.1 28.8 10.6 29.9 26l7.2 103.7c1 15.5-10.6 28.9-26 29.9z"/><path d="m345.1 337.7c17 0 31.1 13.3 32.3 30.2.6 8.6-2.2 17-7.9 23.5s-13.6 10.5-22.2 11.1c-.8.1-1.5.1-2.3.1-17 0-31.2-13.3-32.3-30.2-.6-8.6 2.2-17 7.9-23.5s13.6-10.5 22.2-11.1c.7-.1 1.5-.1 2.3-.1zm0-18c-1.2 0-2.3 0-3.5.1-27.8 1.9-48.8 26-46.9 53.8 1.8 26.6 24 47 50.3 47 1.2 0 2.3 0 3.5-.1 27.8-1.9 48.8-26 46.9-53.8-1.9-26.6-24.1-47-50.3-47z" fill="#fff"/><path d="m463.7 329.5c17 0 31.1 13.3 32.3 30.2.6 8.6-2.2 17-7.9 23.5s-13.6 10.5-22.2 11.1c-.8.1-1.5.1-2.3.1-17 0-31.2-13.3-32.3-30.2-.6-8.6 2.2-17 7.9-23.5s13.6-10.5 22.2-11.1c.8 0 1.6-.1 2.3-.1zm0-18c-1.2 0-2.3 0-3.5.1-27.8 1.9-48.8 26-46.9 53.8 1.8 26.6 24 47 50.3 47 1.2 0 2.3 0 3.5-.1 27.8-1.9 48.8-26 46.9-53.8-1.8-26.6-24-47-50.3-47z" fill="#fff"/><path d="m386.2 424.9c7 2.8 15 3.5 22.4 2.8 7.8-.7 15.6-2.6 22.3-6.7 2-1.2 3-4.1 1.6-6.2-1.3-2-4-2.9-6.2-1.6-1.4.9-2.9 1.6-4.5 2.3.7-.3.2-.1-.2.1s-.9.3-1.3.5c-.8.3-1.6.5-2.4.8-1.7.5-3.4.9-5.1 1.2-.5.1-1 .2-1.5.3-.1 0-1.4.2-.3.1-.9.1-1.9.2-2.8.3-3.6.3-7.1.2-10.7-.2-.9-.1.8.1-.4-.1-.4-.1-.8-.1-1.2-.2-.8-.1-1.6-.3-2.4-.5-1.6-.4-3.3-.9-4.8-1.6-2.2-.9-5 1-5.5 3.1-.7 2.7.7 4.7 3 5.6z" fill="#fff"/><path d="m578 427.4c-14.9-1.8-28.9 4.3-37.8 15-6.2-12.4-18.4-21.7-33.2-23.4-23.4-2.8-44.7 13.9-47.5 37.4-5.6 47.2 47.8 90 66.7 103.6 21.5-8.7 83.6-37.8 89.2-85 2.8-23.5-14-44.8-37.4-47.6z" fill="#fff"/><path d="m526 561.6-.7-.5c-9.5-6.8-27.7-21-42.8-39.4-18.7-22.8-27-44.9-24.5-65.5 2.9-24.2 24.9-41.6 49.1-38.7 14.1 1.7 26.5 10 33.4 22.4 9.6-10.4 23.5-15.6 37.7-13.9 24.2 2.9 41.6 24.9 38.7 49.1-2.5 20.7-15.7 40.2-39.2 57.9-19 14.4-40.1 23.9-50.9 28.3zm-24.1-141.4c-20.6 0-38.4 15.4-40.9 36.3-5.5 46.2 47.8 88.9 65.4 101.7 20.2-8.3 82-37.3 87.5-83.5 2.7-22.6-13.5-43.1-36.1-45.8-13.9-1.6-27.5 3.8-36.5 14.5l-1.5 1.8-1-2.1c-6.2-12.5-18.2-21-32.1-22.7-1.6-.1-3.2-.2-4.8-.2z"/><path d="m575.2 572.1c-4.9 0-9.7-1.9-13.4-5.6l-18.7-18.7c-7.4-7.4-7.4-19.5 0-26.9s19.5-7.4 26.9 0l18.7 18.7c7.4 7.4 7.4 19.5 0 26.9-3.7 3.7-8.6 5.6-13.5 5.6z" fill="#7f52ff"/></svg>